<svg t="1646067050682" class="icon" viewBox="0 0 1033 1024" version="1.1" xmlns="http://www.w3.org/2000/svg" p-id="113706" width="16" height="16"><path d="M350.906063 832.996787l-47.81686-47.808603-103.552278 103.568792 47.511348 47.527862z" opacity=".61" p-id="113707"></path><path d="M913.899842 73.314782a83.219172 83.219172 0 0 1 30.278782 65.016397l2.113818 163.800201c-0.404598 46.598938-31.517347 107.197787-69.161461 134.669155l-354.382302 289.981059c-37.639986 27.471368-95.402521 22.987764-128.360732-9.974575l-50.236191-50.236191L913.899842 73.314782z" p-id="113708"></path><path d="M422.053357 588.149031L944.178624 138.32705s-3.951022-50.339404-30.278782-65.012268L422.053357 588.149031z" p-id="113709"></path><path d="M794.357692 196.816211s-160.489104 117.102178-358.622322 34.522931L332.765217 375.22322s140.395454 45.347988 339.057126-48.506328l122.535349-129.900681z" opacity=".68" p-id="113710"></path><path d="M671.826472 326.721021L387.480883 611.066609l-122.147265-121.854138 67.431599-113.985123c0-0.004129 160.427176 25.320394 339.061255-48.506327zM473.920324 705.498921s396.538921-260.350459 424.5759-336.460268c28.032851-76.101553-8.108471-184.356249-8.108471-184.356249l53.790871-46.355354V323.430567s-2.510158 60.561692-117.234291 154.432522-321.783275 258.880695-321.783275 258.880695l-31.240734-31.244863z" opacity=".68" p-id="113711"></path><path d="M296.75188 707.41044a60.949776 56.891412 90 1 0 113.782824 0 60.949776 56.891412 90 1 0-113.782824 0Z" p-id="113712"></path><path d="M318.092352 695.181676a34.593116 30.245754 90 1 0 60.491507 0 34.593116 30.245754 90 1 0-60.491507 0Z" p-id="113713"></path><path d="M251.882804 606.690347a20.184478 20.184478 0 0 0-14.342581 6.898806c-9.821819 11.266812-19.540425 23.536861-28.920489 35.418826-28.965903 36.583077-58.885501 74.417104-98.940688 93.020348a20.213378 20.213378 0 0 0-5.775841 32.615541l157.363792 157.372049a20.205121 20.205121 0 0 0 34.21329-10.940656c7.187805-42.680945 48.659084-82.59989 126.791883-122.027537a20.205121 20.205121 0 0 0 4.888202-32.619669l-160.38589-154.143524a20.155579 20.155579 0 0 0-14.891678-5.594184z" fill="#DADAF0" p-id="113714"></path><path d="M302.07358 733.6515l-77.633244-77.637373-103.572921 103.560536 77.348374 77.36076z" fill="#FFFFFF" opacity=".61" p-id="113715"></path><path d="M1014.908934 138.223837c0.173399-27.888352-10.577344-54.092255-30.287039-73.822594-19.771623-19.796395-46.074612-30.592552-74.074435-30.390252l-213.966205 1.589491c-53.250031 0.388084-119.422422 34.481645-150.621871 77.608473l-246.532204 344.461398c-32.921054 45.45533-27.384669 114.84799 12.373263 154.605921l118.807268 118.819654c39.79096 39.79096 109.134077 45.178717 154.572893 12.022336l0.445883-0.330284 354.8158-290.344371-0.887638 0.681211c42.974072-31.356333 77.001576-97.603038 77.463974-150.807655l-2.109689-164.093328z" fill="#FFFFFF" p-id="113716"></path><path d="M515.779687 781.365147c-37.024832 0-72.328058-14.065968-96.851642-38.593681l-118.807269-118.819654c-45.253031-45.253031-51.565583-124.195026-14.070096-175.967036l246.478532-344.387084c34.568345-47.779703 105.022042-84.082039 163.932315-84.511408l214.866229-1.589491c32.107729 0 62.291555 12.513633 84.982063 35.23717 22.822622 22.843264 35.290841 53.200489 35.117442 85.494002l2.109688 164.093328c-0.503683 58.452004-36.294079 128.571288-83.305871 163.457531l-355.236912 290.625113c-22.091868 16.113729-50.199033 24.96121-79.214479 24.96121z m395.54394-730.839958h-0.656439l-213.966205 1.589491c-47.75906 0.346798-109.38179 32.095344-137.36097 70.775724l-246.48679 344.391212c-28.441577 39.270763-23.65246 99.043902 10.622758 133.31912l118.807268 118.819654c18.380302 18.376174 45.166331 28.916361 73.496438 28.916361 22.075354 0 43.26307-6.589165 59.665797-18.55783l0.037157-0.024771 354.031376-289.704446-0.016515-0.020643 0.887638-0.681211 0.012386 0.016515c38.259268-28.297078 69.702301-89.80008 70.106899-137.187571-0.008257-0.301384-2.080789-161.801983-2.10556-163.68873 0.140371-23.796959-8.897024-45.835156-25.460765-62.411283a86.476597 86.476597 0 0 0-61.614473-25.551592z" fill="#6E6E96" p-id="113717"></path><path d="M964.429159 73.314782a83.248072 83.248072 0 0 1 30.278782 65.016397l2.105561 163.800201c-0.396341 46.598938-31.513218 107.197787-69.161461 134.669155l-354.386431 289.981059c-37.639986 27.471368-95.398393 22.987764-128.356603-9.974575l-50.236191-50.236191L964.429159 73.314782z" fill="#D6D6ED" p-id="113718"></path><path d="M472.574417 588.149031L994.707941 138.32705s-3.951022-50.339404-30.278782-65.012268L472.574417 588.149031z" fill="#FFFFFF" p-id="113719"></path><path d="M844.878752 196.816211s-160.489104 117.102178-358.626451 34.522931L383.273891 375.22322s140.416097 45.347988 339.061255-48.506328l122.543606-129.900681z" fill="#D3D3F2" opacity=".36" p-id="113720"></path><path d="M722.335146 326.721021l-284.333203 284.345588-133.137463-127.782735 78.409411-108.056526c0-0.004129 160.427176 25.320394 339.061255-48.506327z" fill="#CECEED" opacity=".68" p-id="113721"></path><path d="M524.428998 705.498921s355.261683-301.627697 383.298663-377.737506c28.03698-76.101553 33.177024-143.074882 33.177024-143.074882l53.790871-46.355354V323.430567s-2.510158 60.561692-117.234291 154.432522-321.787404 258.880695-321.787404 258.880695l-31.244863-31.244863z" fill="#FFFFFF" opacity=".68" p-id="113722"></path><path d="M275.54765 954.446327a36.471606 36.471606 0 0 1-25.952062-10.746614L92.223538 786.323535a36.690419 36.690419 0 0 1-10.18926-32.367828 36.752348 36.752348 0 0 1 20.671648-26.8975c36.455092-16.93531 65.119611-53.134432 92.838692-88.14866 8.570869-10.858085 19.102798-24.197429 29.539771-36.174351a36.839047 36.839047 0 0 1 27.75211-12.587947c9.483278 0 18.491773 3.633124 25.361679 10.226417l160.398276 154.155909a36.777119 36.777119 0 0 1 10.886985 31.909559 36.80189 36.80189 0 0 1-19.771623 27.355769c-72.100988 36.380778-111.788734 73.401481-117.956787 110.025844a36.554177 36.554177 0 0 1-25.031396 28.875075 36.51702 36.51702 0 0 1-11.175983 1.750505z m-22.702894-331.266554c-1.25095 0.053671-2.200517 0.507812-2.852828 1.259208-9.908519 11.370025-20.167964 24.362571-28.408549 34.803672-30.254011 38.209725-61.391531 77.538288-104.947728 97.76818a3.703309 3.703309 0 0 0-1.069294 5.945112l157.380306 157.388563a3.748723 3.748723 0 0 0 3.736338 0.895895 3.711566 3.711566 0 0 0 2.506029-2.877599c8.124985-48.254486 52.494507-92.091425 135.639365-134.049873a3.686795 3.686795 0 0 0 0.895895-5.94924l-160.402404-154.160037a3.550553 3.550553 0 0 0-2.47713-1.023881z" fill="#6E6E96" p-id="113723"></path><path d="M188.154514 490.595535c-29.333344 28.990674-29.358115 76.972677-0.053671 106.611534l244.822984 247.626269c29.300316 29.634728 77.269932 30.159054 106.603277 1.160122 29.333344-28.994803 29.353987-76.980934 0.057799-106.611533l-244.822984-247.626269c-29.304444-29.634728-77.282318-30.167311-106.607405-1.160123z" fill="#DADAF0" p-id="113724"></path><path d="M239.208157 538.296796c-29.325087 28.990674-29.341601 76.980934-0.053671 106.603276l89.358325 92.153353c29.312701 29.647114 77.282318 30.17144 106.615662 1.16838 29.325087-28.994803 29.353987-76.980934 0.041285-106.607405l-89.345939-92.157482c-29.308573-29.642985-77.278189-30.167311-106.615662-1.160122z" fill="#F0F0F0" p-id="113725"></path><path d="M487.05324 883.918316h-0.004129c-24.957082 0-48.349443-9.755762-65.866878-27.471368l-244.822985-247.62627a92.058396 92.058396 0 0 1-26.736486-65.169153c0.012386-24.643312 9.574106-47.651718 26.922271-64.801713 17.063295-16.881639 39.823988-26.183261 64.079217-26.183261 24.957082 0 48.349443 9.759891 65.871007 27.479625l244.827113 247.62627c17.24908 17.44725 26.744744 40.58777 26.732357 65.160896-0.012386 24.64744-9.574106 47.659975-26.922271 64.805842-17.075681 16.881639-39.832245 26.179132-64.079216 26.179132z m-246.424862-398.223369c-15.498575 0-30.010426 5.912083-40.860254 16.642183-11.031484 10.903499-17.108709 25.576364-17.116966 41.330909a59.211657 59.211657 0 0 0 17.195408 41.929548l244.822985 247.62627a59.149728 59.149728 0 0 0 42.37956 17.666063h0.004129c15.494446 0 30.010426-5.907954 40.860254-16.638054 11.027356-10.899371 17.108709-25.576364 17.116966-41.335038a59.195143 59.195143 0 0 0-17.19128-41.921291l-244.822984-247.62627a59.1745 59.1745 0 0 0-42.387818-17.67432z" fill="#6E6E96" p-id="113726"></path><path d="M54.228497 753.146511c-24.098343 23.825859-19.850066 67.567841 9.454379 97.214955l120.322446 121.697253c29.300316 29.638857 73.001012 34.386689 97.107612 10.569087 24.094215-23.825859 19.833552-67.584355-9.466764-97.214955l-120.326574-121.70551c-29.296187-29.642985-72.984498-34.394946-97.091099-10.56083z" fill="#DADAF0" p-id="113727"></path><path d="M94.92361 791.054852c-20.262921 20.039979-20.271178 53.192232-0.024772 73.669837l22.31481 24.255229c20.254664 20.485863 53.402788 20.849175 73.678094 0.805067 20.262921-20.039979 20.271178-53.19636 0.033029-73.673966l-22.331324-24.255228c-20.23815-20.477605-53.398659-20.840918-73.669837-0.800939z" fill="#F0F0F0" p-id="113728"></path><path d="M241.986671 1014.310294h-0.004129c-25.056167 0-50.471517-11.167726-69.722943-30.642094L51.937153 861.970947c-35.77801-36.199122-39.96023-90.28312-9.322265-120.570159 13.013188-12.86456 31.038435-19.95328 50.744001-19.95328 25.04791 0 50.455003 11.171855 69.70643 30.650352l120.322446 121.701381c35.782138 36.186736 39.972616 90.270734 9.334651 120.566031-13.013188 12.86456-31.034306 19.945023-50.735745 19.945022z m-148.627782-259.83439c-7.749287 0-18.817929 1.808305-27.525039 10.412202-17.385322 17.187152-12.992545 51.012357 9.590621 73.863879l120.322446 121.693124c13.09163 13.240258 29.944369 20.836789 46.235625 20.836789h0.004129c7.749287 0 18.8138-1.804176 27.516782-10.408073 17.381193-17.187152 12.988417-51.008229-9.603006-73.855621l-120.326575-121.705511c-13.087502-13.240258-29.931984-20.836789-46.214983-20.836789z" fill="#6E6E96" p-id="113729"></path><path d="M491.540973 787.904769c29.333344-29.00306 29.358115-76.980934 0.053671-106.615662L293.911438 481.347584c2.035375 1.659677 4.004693 3.447339 5.899697 5.362986l244.83537 247.62627c29.304444 29.6306 29.279673 77.608473-0.053671 106.599147-29.329216 28.998932-77.315346 28.482863-106.603276-1.155994l-47.152164-47.684746c29.523257 24.209814 73.261111 22.938221 100.703579-4.190478zM243.150922 936.817421c19.507396-19.280326 19.528039-51.189885 0.037157-70.899581l-131.481916-132.984707c1.358293 1.11058 2.671172 2.295474 3.926251 3.562938l162.825863 164.696096c19.486754 19.701438 19.470239 51.619254-0.033028 70.903709-19.511525 19.284455-51.421084 18.941785-70.895452-0.776167l-31.368719-31.715518c19.63951 16.113729 48.737527 15.250862 66.989844-2.78677z" fill="#6E6E96" opacity=".15" p-id="113730"></path><path d="M362.263703 773.347504s-69.198618 35.146342-105.686738 105.707381l37.933112 42.833701s36.640877-96.649343 101.037992-106.087208l-33.284366-42.453874z" fill="#6E6E96" opacity=".15" p-id="113731"></path></svg>