<?xml version="1.0" standalone="no"?><!DOCTYPE svg PUBLIC "-//W3C//DTD SVG 1.1//EN" "http://www.w3.org/Graphics/SVG/1.1/DTD/svg11.dtd"><svg t="1645447675195" class="icon" viewBox="0 0 1024 1024" version="1.1" xmlns="http://www.w3.org/2000/svg" p-id="2163" xmlns:xlink="http://www.w3.org/1999/xlink" width="16" height="16"><defs><style type="text/css"></style></defs><path d="M325.351823 0l36.86964 2.04998q120.82882 44.02957 292.85714 126.97876 172.02832 82.93919 149.49854 257.01749L671.458443 505.85506q114.68888 117.75885 111.61891 229.877755-3.06997 112.128905-58.36943 249.347565l-39.92961 26.61974 53.23948-319.48688q-15.35985-71.6793-57.859435-99.32903-42.499585-27.63973-48.629525-100.34902 55.28946-31.73969 101.879005-91.12911 46.599545-59.38942 31.239695-121.85881L564.969483 119.80883l-19.45981 33.78967q49.14952 127.99875-7.16993 219.13786-24.56976-217.08788-79.86922-279.55727L339.691683 28.66972 325.351823 0z m0 199.67805l26.62974-5.11995q10.2399 92.1591 18.42982 167.93836l53.24948 5.11995q24.56976 14.32986 46.07955 62.45939l-36.86964-22.52978h-22.52978l-45.04956-3.06997-13.30987 127.99875 81.9192 46.07955q4.08996 23.54977 10.2399 167.428365 6.13994 143.878595-5.11995 250.367555l-35.83965-27.64973-11.26989-169.97834-119.80883-64.50937-14.32986 254.96751-25.59975 34.81966-15.35985-513.01499 97.27905 5.11995q2.04998-204.798 11.25989-316.41691zM272.102343 559.09454q-12.27988 88.06914 15.879845 115.208875 28.159725 27.129735 92.669095 65.019365l11.25989-20.4798q3.06997-84.98917 2.04998-110.58892L272.102343 559.09454z" fill="#88392b" p-id="2164"></path></svg>