<?xml version="1.0" standalone="no"?><!DOCTYPE svg PUBLIC "-//W3C//DTD SVG 1.1//EN" "http://www.w3.org/Graphics/SVG/1.1/DTD/svg11.dtd"><svg t="1643698692756" class="icon" viewBox="0 0 1024 1024" version="1.1" xmlns="http://www.w3.org/2000/svg" p-id="665" xmlns:xlink="http://www.w3.org/1999/xlink" width="200" height="200"><defs><style type="text/css"></style></defs><path d="M847.1 452.5c10.7-91.9-16.6-196.8-16.6-196.8s-66.3 18.3-130.1 54.1c-37.7-63.5-86.1-113.1-86.1-113.1s-48.4 49.6-86.1 113.1c-63.8-35.8-130.1-54.1-130.1-54.1S372 356.4 381 446.9c-70.4-26.6-132-28.1-132-28.1S273.4 553 372.5 637.7c43.2 36.9 87.6 65.2 126.5 82.4-38.4 7.3-62.9 18.1-62.9 30.2 0 22.1 81.4 40 181.8 40s181.8-17.9 181.8-40c0-10.7-19.4-20.5-50.7-27.7 39.1-18 83.7-47.6 127-86.4 97.1-86.9 118.3-221.6 118.3-221.6s-71.1 3.3-147.2 37.9z m0 0" fill="#FFBBA6" p-id="666"></path><path d="M528.3 673.9c-38.9 0-75.1-22.6-102-63.6-25.8-39.4-40-91.5-40-146.8 0-47.9 22.6-104.8 67-169.1 32.6-47.2 64.8-80.2 66.2-81.6 2.3-2.4 5.5-3.7 8.8-3.7 3.3 0 6.5 1.3 8.8 3.7 1.4 1.4 33.5 34.5 66.2 81.6 44.5 64.3 67 121.2 67 169.1 0 55.3-14.2 107.4-40 146.8-26.9 41-63.1 63.6-102 63.6z m0-434.4c-28.7 31.8-117.4 137.1-117.4 224 0 50.5 12.8 97.9 36 133.3 22.1 33.8 51.1 52.5 81.4 52.5 30.4 0 59.3-18.6 81.4-52.5 23.2-35.4 36-82.8 36-133.3 0-87-88.7-192.3-117.4-224z m3.6 587.6c-49.4 0-96-4.3-131.2-12-42.3-9.3-62.9-22.5-62.9-40.3 0-17.8 20.6-31 62.9-40.3 35.2-7.7 81.8-12 131.2-12 49.4 0 96 4.3 131.2 12 42.3 9.3 62.9 22.5 62.9 40.3 0 17.8-20.6 31-62.9 40.3-35.2 7.7-81.8 12-131.2 12zM363 774.8c3.4 3.5 16.4 11.1 49.8 17.7 32.6 6.5 74.9 10 119.1 10s86.5-3.6 119.1-10c33.3-6.6 46.3-14.2 49.8-17.7-3.4-3.5-16.4-11.1-49.8-17.7-32.6-6.5-74.9-10-119.1-10s-86.5 3.6-119.1 10c-33.4 6.6-46.4 14.2-49.8 17.7z m0 0" fill="#9E1919" p-id="667"></path><path d="M485.4 775.7c-17 0-37.2-4.2-60-12.7-45.8-17.1-98-49.5-147-91.4-53-45.3-84.9-104.3-102.2-145.7-18.8-44.8-25.1-78.8-25.3-80.2-0.7-3.6 0.4-7.4 2.7-10.2 2.4-2.8 5.9-4.4 9.6-4.3 1.4 0 36 0.9 83.2 12.5 43.7 10.7 106.9 32.9 159.9 78.2 49 41.9 89.2 88.3 113.2 130.9 26 46.2 30.2 83.5 11.6 105.3-10 11.7-25.6 17.6-45.7 17.6zM178.7 456.9c3.6 13.7 10 35.2 20.4 60 16.3 38.8 46.1 93.9 95.3 135.9 46.9 40 96.4 70.9 139.6 87 38.1 14.2 67.5 15 78.5 2.1s5.7-41.8-14.3-77.2c-22.6-40.1-60.9-84.2-107.8-124.3-75.2-64-173.6-79.7-211.7-83.5z m0 0" fill="#9E1919" p-id="668"></path><path d="M591.3 779c-8.7 0-16.6-1.2-23.5-3.6-8.2-2.8-15-7.2-20.3-13.2-5.3-5.9-9-13.2-10.8-21.7-1.7-7.6-1.9-16.2-0.7-25.5 1.1-8.6 3.5-18 7.1-28 3.4-9.6 8.1-19.8 13.7-30.4 5.6-10.4 12.2-21.3 19.7-32.3 7.5-11 16-22.3 25.2-33.5 9.3-11.4 19.5-22.8 30.3-34 11.2-11.7 22.9-22.9 34.9-33.7 12-10.8 25.3-20.9 39.4-30.1 12.8-8.3 26.5-16.1 40.9-23 12.8-6.2 26.3-11.9 40.2-17 12.1-4.4 24.8-8.4 37.6-11.8 10.9-2.9 21.8-5.5 32.8-7.6 8.8-1.7 17.6-3.2 26.1-4.4 6.1-0.8 11.9-1.5 17.3-2 4.1-0.4 6.4-0.5 6.6-0.5 3.7-0.2 7.3 1.3 9.7 4.1 2.5 2.8 3.6 6.5 3 10.1 0 0.1-0.4 2.4-1.2 6.5-1 5.2-2.4 11.1-3.9 17-1.7 6.6-8.3 10.6-14.9 8.9-6.6-1.7-10.6-8.3-8.9-14.9 0.5-2 1-3.9 1.4-5.6-1.8 0.2-3.7 0.5-5.7 0.7-8.1 1.1-16.4 2.5-24.7 4.1-10.4 2-20.9 4.5-31.2 7.2-12.1 3.3-24.1 7-35.6 11.2-13.1 4.8-25.9 10.1-37.9 16-13.4 6.5-26.3 13.7-38.2 21.5-13.1 8.5-25.3 17.9-36.4 27.8a642.23 642.23 0 0 0-33.6 32.4c-10.3 10.7-20.1 21.7-29 32.6-8.7 10.7-16.8 21.3-23.9 31.8-7 10.3-13.2 20.3-18.3 30-5.1 9.5-9.2 18.6-12.2 27.1-3 8.3-4.9 16-5.8 22.8-0.8 6.5-0.7 12.2 0.3 17 1 4.3 2.7 7.8 5.2 10.6s5.8 4.9 10 6.3c4.6 1.6 10.3 2.3 16.8 2.2 6.9-0.1 14.8-1.2 23.3-3.3 8.8-2.1 18.3-5.2 28.3-9.2 10.1-4.1 20.9-9.1 31.8-14.9 11.1-5.9 22.7-12.7 34.2-20.3 11.8-7.7 23.8-16.2 35.6-25.2 12.3-9.5 24.3-19.4 35.9-29.8 11.1-9.9 21.8-21.1 31.7-33.1 9-11 17.6-22.9 25.6-35.6 7.1-11.3 13.9-23.4 20-35.9 5.5-11.2 10.5-22.5 15-34.1 2.5-6.3 9.6-9.4 15.9-7 6.3 2.5 9.4 9.6 7 15.9-4.8 12.3-10.2 24.5-15.9 36-6.5 13.3-13.7 26.1-21.3 38.1-8.5 13.5-17.7 26.3-27.4 38.1-10.7 13-22.2 25.1-34.3 35.8-12.2 10.9-24.7 21.3-37.3 31-12.3 9.5-24.8 18.3-37.1 26.4-12.2 7.9-24.3 15.1-36.1 21.4-11.8 6.2-23.3 11.6-34.2 16-11.1 4.4-21.8 7.9-31.7 10.3-10.3 2.5-19.9 3.8-28.6 3.9-0.7 0.4-1.3 0.4-1.9 0.4z m0 0" fill="#9E1919" p-id="669"></path><path d="M481.5 686.2c-11.1 0-22.6-1.6-34.3-4.7-52.8-14.2-104.9-58.8-139.2-119.4-23.5-41.5-31.9-102.2-25-180.5 5.1-57.4 16.7-102.4 17.2-104.3 0.8-3.2 2.9-5.9 5.8-7.6 2.9-1.6 6.2-2.1 9.4-1.2 1.9 0.5 46 12.8 97.4 37 70.1 33 117.6 70.9 141.2 112.4 27.1 47.9 40.4 100.2 37.5 147.5-3.1 49.1-23.3 87-57 106.8-15.8 9.3-33.8 14-53 14zM321.2 295.9c-9.2 41.9-34.4 178.7 8.3 254 31.2 55 77.6 95.3 124.2 107.7 25.6 6.9 49.3 4.5 68.5-6.8 26.4-15.5 42.3-46.4 44.9-87.1 2.7-42.5-9.5-90-34.3-133.8-42.8-75.1-171.3-121.1-211.6-134z m0 0" fill="#9E1919" p-id="670"></path><path d="M575.1 686.2c-8.6 0-17-0.9-25-2.8-9.9-2.3-19.3-6.1-28-11.2s-16.6-11.5-23.5-19.1c-6.7-7.3-12.5-15.7-17.3-25.1-4.6-9-8.4-19-11.1-29.6-2.7-10.4-4.4-21.5-5.1-33-0.7-11.4-0.5-23.3 0.7-35.4 1.2-12.1 3.4-24.6 6.5-37 3.1-12.6 7.3-25.2 12.2-37.6 5.1-12.7 11.2-25.3 18-37.4 6.9-12.2 16.1-24.2 27.2-35.8 10-10.4 21.7-20.6 35-30.4 11.7-8.7 24.9-17.3 39.2-25.4 12.4-7.1 25.8-14.1 39.9-20.7 12.2-5.7 24.6-11.1 37.1-16.1 10.2-4.1 20.5-7.9 30.9-11.5 7.4-2.6 14.5-4.9 21.3-7 5.1-1.6 8-2.4 8.1-2.4 3.2-0.9 6.6-0.4 9.4 1.2 2.9 1.6 4.9 4.4 5.7 7.6 0 0.1 0.8 3.1 2 8.3 1.6 7 3.2 14.4 4.7 22.2 1.3 6.7-3.1 13.1-9.7 14.4-6.7 1.3-13.1-3.1-14.4-9.7-1.3-6.6-2.5-12.2-3.4-16.5-4.2 1.3-9.5 3.1-15.6 5.2-10 3.5-20 7.2-29.9 11.1-12.3 4.9-24.3 10.1-35.8 15.5-13.5 6.3-26.3 13-38.1 19.8-13.4 7.7-25.8 15.8-36.8 23.9-12.2 9-22.9 18.3-31.9 27.7-9.7 10.1-17.6 20.5-23.5 30.9-6.3 11.1-11.8 22.6-16.6 34.4-4.6 11.4-8.3 23-11.2 34.4-2.8 11.2-4.8 22.5-5.9 33.5-1.1 10.8-1.3 21.4-0.6 31.5 0.6 10 2.1 19.6 4.4 28.5 2.3 8.8 5.3 17.1 9.1 24.5 3.8 7.4 8.4 14 13.6 19.7 5.3 5.8 11.3 10.6 17.8 14.5 6.5 3.9 13.7 6.7 21.2 8.5 7.4 1.7 15.3 2.4 23.4 2.1 8.1-0.4 16.6-1.7 25.2-4.2 8.7-2.4 17.5-5.9 26.3-10.3 8.9-4.5 17.7-9.9 26.4-16.3 8.8-6.4 17.3-13.8 25.5-21.9 8.3-8.3 16.3-17.4 23.7-27.1 7.6-10 14.6-20.7 21-31.9 5.9-10.4 10.8-22.6 14.5-36.2 3.5-12.6 6-26.8 7.6-42 1.4-13.8 2.1-28.7 1.9-44.4-0.1-13.8-0.9-28.5-2.2-43.5-0.6-6.8 4.4-12.7 11.2-13.3 6.8-0.6 12.7 4.4 13.3 11.2 1.4 15.7 2.2 31 2.3 45.5 0.2 16.6-0.5 32.5-2.1 47.2-1.7 16.6-4.5 32.1-8.4 46-4.3 15.6-10 29.7-16.9 41.9-6.9 12.1-14.5 23.8-22.8 34.6-8.1 10.6-16.8 20.6-25.9 29.6-9 8.9-18.5 17.1-28.3 24.2-9.7 7.1-19.8 13.3-29.9 18.4-10.2 5.1-20.5 9.2-30.7 12-10.4 2.9-20.8 4.6-30.8 5-1.5-0.3-3.2-0.2-4.9-0.2z m0 0" fill="#9E1919" p-id="671"></path><path d="M702.4 590.9c0 93.2-72.9 177.4-168.7 177.4-95.7 0-178-84.2-178-177.4 0-93.1 173.3-230.7 173.3-230.7s173.4 137.6 173.4 230.7z m0 0" fill="#FFFFFF" p-id="672"></path><path d="M533.7 780.6c-101.4 0-190.3-88.6-190.3-189.7 0-41.9 30.3-95.3 90-158.7 43.4-46.2 86.2-80.2 88-81.6 4.5-3.6 10.8-3.6 15.3 0 1.8 1.4 44.5 35.5 88 81.6 59.7 63.5 90 116.9 90 158.7 0 48.3-18.8 96.4-51.7 131.9-34.4 37.3-80.3 57.8-129.3 57.8zM529 376.1c-14.2 11.9-46.3 39.5-77.9 73.2-54.4 57.8-83.1 106.8-83.1 141.6 0 87.9 77.4 165.1 165.7 165.1 84.8 0 156.4-75.6 156.4-165.1 0-34.9-28.7-83.8-83.1-141.7-31.7-33.6-63.7-61.2-78-73.1z m0 0" fill="#9E1919" p-id="673"></path><path d="M569.7 414.1S417.2 535.1 417.2 617c0 35.9 13.9 70.3 36.7 97.6 27.2 22.6 61.6 36.7 98.3 36.7 84.2 0 148.4-74 148.4-155.9 0-42.6-41.2-95.7-80.8-136.9-27.7-26.6-50.1-44.4-50.1-44.4z m0 0" fill="#FFBBA6" p-id="674"></path></svg>