<?xml version="1.0" standalone="no"?><!DOCTYPE svg PUBLIC "-//W3C//DTD SVG 1.1//EN" "http://www.w3.org/Graphics/SVG/1.1/DTD/svg11.dtd"><svg t="1643889211039" class="icon" viewBox="0 0 1024 1024" version="1.1" xmlns="http://www.w3.org/2000/svg" p-id="2448" xmlns:xlink="http://www.w3.org/1999/xlink" width="16" height="16"><defs><style type="text/css"></style></defs><path d="M515.5 940.5h-7.4c-53.6 0-104.1-7-150.1-20.7-48.2-14.4-90.6-35.9-125.9-64-77.5-61.5-118.5-152.3-118.5-262.5 0-80.9 35-157.8 104.1-228.6 16.1-16.6 33.1-32 50.7-45.9-6.2-5.8-11.7-12.2-16.3-18.9-12.4-18-19-38.7-19-60 0-32.9 15.1-63.4 42.5-85.7 25.6-20.9 59.3-32.4 94.9-32.4 16.5 0 32.3 2.8 47.1 8.4 0.6 0.2 1.1 0.4 1.7 0.6 4.8-5.4 10.2-10.7 16.4-15.9 22.2-18.9 47.2-29.7 74.1-32.1 1.5-0.1 2.9-0.1 4.4 0 26.9 2.4 51.9 13.2 74.1 32.1 6.2 5.2 11.6 10.6 16.4 15.9 0.5-0.2 1.1-0.4 1.6-0.6 14.6-5.6 30.5-8.4 47.2-8.4 35.5 0 69.2 11.5 94.9 32.4 27.4 22.3 42.5 52.8 42.5 85.7 0 21.2-6.6 41.9-19 60-4.7 6.8-10.2 13.1-16.3 18.9 17.5 13.9 34.5 29.2 50.7 45.9 69.2 70.9 104.1 147.8 103.9 228.6 0 110.2-41 201-118.5 262.5-35.4 28.1-77.8 49.6-125.9 64-46.2 13.7-96.7 20.7-150.3 20.7zM370.4 171.9c-48.2 0-87.4 30.5-87.4 68.1 0 22.7 14.7 43.7 39.4 56.2 8.1 4.1 13.4 12.3 13.7 21.4 0.4 9.1-4.3 17.6-12 22.3-2.1 1.3-4.4 2.9-8.2 5.8-0.2 0.1-0.4 0.3-0.6 0.4-21.5 15.4-42.2 33.4-61.8 53.5-59.7 61.2-89.9 126.3-89.9 193.7 0 49.1 9.1 93.5 27 131.9 16.7 35.7 41.1 66.5 72.6 91.5 30.4 24.1 67.1 42.7 109.2 55.2 41.4 12.3 87.1 18.6 135.8 18.6h7.4c48.7 0 94.4-6.3 135.8-18.6 42.1-12.5 78.8-31.1 109.2-55.2 31.5-25 55.9-55.8 72.6-91.5 17.9-38.4 27-82.8 27-131.9 0.2-67.3-30-132.5-89.7-193.6-19.5-20.1-40.3-38.1-61.8-53.5-0.2-0.1-0.3-0.2-0.5-0.4-3.3-2.5-6.1-4.5-8.7-6.1-7.6-4.8-12-13.4-11.5-22.3 0.4-9 5.7-17 13.7-21.1 24.6-12.4 39.4-33.4 39.4-56.2 0-37.6-39.2-68.1-87.4-68.1-10.7 0-20.7 1.8-29.6 5.2l-0.9 0.3c-3.6 1.2-6.4 2.5-8.5 3.7-0.7 0.5-1.5 0.9-2.3 1.2-13.5 6.3-29.7 0.5-37.6-8.8-0.6-0.7-1.2-1.5-1.8-2.3-2.7-4-7.8-10.4-17-18.2-13.5-11.5-28.3-18.3-43.9-20.1-15.6 1.8-30.4 8.6-43.9 20.1-9.2 7.9-14.3 14.2-17 18.2-0.5 0.8-1.1 1.6-1.8 2.3-7.9 9.3-24.1 15.2-37.6 8.8-0.8-0.4-1.6-0.8-2.3-1.2-2.1-1.3-4.9-2.5-8.5-3.7-0.2-0.1-0.5-0.2-0.7-0.3-9.4-3.5-19.4-5.3-29.9-5.3z" p-id="2449" fill="#ffffff"></path><path d="M613.2 760.3c-3.2 0-6.4-0.8-9.3-2.3L512 709.7 420.1 758c-6.7 3.5-14.9 3-21.1-1.5-6.2-4.5-9.2-12.1-8-19.6l17.5-102.2-74.3-72.5c-5.4-5.3-7.4-13.3-5.1-20.5 2.4-7.2 8.6-12.5 16.1-13.6l102.7-14.9 45.9-93.1c3.4-6.8 10.3-11.1 17.9-11.1s14.6 4.3 17.9 11.1l45.9 93.1 102.7 14.9c7.5 1.1 13.8 6.4 16.1 13.6 2.4 7.2 0.4 15.2-5.1 20.5l-74.3 72.5 17.5 102.2c1.3 7.5-1.8 15.1-8 19.6-2.9 2.5-7.1 3.8-11.2 3.8zM512 667.1c3.2 0 6.4 0.8 9.3 2.3l65.3 34.3-12.5-72.7c-1.1-6.5 1-13.1 5.7-17.7l52.8-51.5-73-10.6c-6.5-0.9-12.1-5-15.1-10.9L512 474.2l-32.7 66.2c-2.9 5.9-8.5 10-15.1 10.9l-73 10.6 52.8 51.5c4.7 4.6 6.9 11.2 5.7 17.7l-12.5 72.7 65.3-34.3c3.1-1.6 6.3-2.4 9.5-2.4z" p-id="2450" fill="#ffffff"></path></svg>