<svg t="1646066863260" class="icon" viewBox="0 0 1024 1024" version="1.1" xmlns="http://www.w3.org/2000/svg" p-id="112742" width="16" height="16"><path d="M572.501333 294.656v-54.784c0-1.557333-0.32-3.050667-0.618666-4.544-0.533333-2.666667-1.301333-5.354667-1.365334-8.064-0.106667-4.821333-1.088-9.28-3.818666-13.312-1.088-1.6-1.365333-3.392-1.152-5.376 0.576-5.312-0.256-10.368-3.029334-15.018667-1.258667-2.112-1.749333-4.373333-1.642666-6.848 0.149333-3.52-0.170667-6.997333-2.282667-10.048-1.344-1.941333-0.490667-3.306667 0.576-5.226666 2.496-4.522667 6.378667-2.56 9.813333-2.816 0.298667-0.021333 0.789333 0.170667 0.874667 0.384 1.173333 2.709333 3.882667 3.242667 6.186667 4.117333 4.544 1.685333 8.96 3.712 13.354666 5.674667 5.888 2.645333 11.392 6.186667 16.128 10.666666 1.898667 1.813333 2.389333 4.202667 2.176 6.826667-0.661333 8.341333-0.192 16.682667-0.213333 25.045333-0.021333 7.168 0.192 14.336 0.213333 21.482667 0.021333 38.912 0.064 77.824-0.021333 116.736-0.021333 5.568 2.496 9.621333 6.357333 13.098667 2.218667 1.984 3.797333 4.224 4.736 7.104 1.450667 4.458667 3.754667 5.269333 8.042667 3.413333 3.456-1.493333 6.506667-3.712 9.792-5.482667 5.290667-2.858667 11.008-4.970667 16.149333-8.064 4.245333-2.56 9.365333-2.901333 13.333334-6.058666 1.898667-1.514667 4.416-2.090667 6.954666-2.304 2.837333-0.234667 5.525333-1.024 7.850667-2.794667 1.536-1.152 3.306667-1.578667 5.269333-1.621333 4.266667-0.064 8.512 0.256 12.8-0.064 2.282667-0.170667 4.010667 0.853333 5.077334 3.114666 1.578667 3.328 3.050667 6.634667 3.050666 10.432 0 1.344 0.362667 2.794667 1.28 3.84 1.984 2.282667 2.517333 4.970667 2.602667 7.829334 0.064 2.282667 0.682667 4.309333 2.026667 6.208 1.962667 2.794667 0.725333 5.184-2.709334 5.44-1.621333 0.128-3.242667 0.042667-4.864 0.149333-1.28 0.085333-2.752-0.042667-3.754666 0.554667-6.421333 3.904-14.058667 4.394667-20.693334 7.573333-1.813333 0.874667-3.648 1.472-5.653333 1.365333-2.602667-0.128-4.672 0.832-6.144 2.986667-1.066667 1.557333-2.517333 2.346667-4.288 2.965333-5.013333 1.770667-9.472 4.736-13.76 7.744-6.677333 4.693333-13.717333 8.96-19.434667 14.912-6.293333 6.528-11.285333 13.930667-15.552 22.016-3.178667 6.037333-3.498667 12.949333-7.146666 18.709334-1.28 2.026667-1.109333 4.608-1.173334 6.997333-0.213333 7.253333-0.384 14.485333-0.533333 21.738667-0.085333 4.266667 1.834667 7.765333 4.522667 10.837333 1.898667 2.176 3.84 4.224 5.141333 6.933333 1.408 2.944 4.330667 4.245333 7.445333 4.16 6.442667-0.170667 12.757333-1.109333 17.877334-5.653333 1.493333-1.322667 3.242667-2.048 5.333333-2.112 8.789333-0.256 17.557333-0.682667 26.346667-0.938667 2.197333-0.064 4.266667-0.448 6.101333-1.621333 3.733333-2.368 7.850667-3.008 12.202667-3.242667 3.989333-0.213333 6.656 1.578667 8.896 4.501334 1.813333 2.368 3.392 4.906667 4.906666 7.488a38.805333 38.805333 0 0 0 5.888 7.701333c2.048 2.069333 1.770667 3.413333-0.704 4.778667-4.544 2.517333-8.896 5.44-13.653333 7.488-10.026667 4.352-19.157333 10.304-28.565333 15.722666a178.781867 178.781867 0 0 0-21.098667 14.293334c-4.544 3.584-9.621333 6.464-14.058667 10.197333-5.077333 4.288-10.005333 8.746667-14.208 13.952-1.450667 1.792-3.52 3.221333-4.458666 5.226667-1.984 4.224-4.672 8.042667-6.762667 12.181333-0.832 1.621333-0.597333 3.498667-0.682667 5.290667-0.170667 4.010667 0.32 8.021333-0.341333 12.010666-0.192 1.109333-0.341333 2.24-1.024 3.136-3.968 5.248-3.690667 11.413333-3.541333 17.408 0.106667 4.202667-0.362667 8.277333-0.789334 12.437334-0.789333 7.68-2.901333 15.530667 1.216 23.061333 1.173333 2.154667 3.093333 3.626667 4.373334 5.632 2.048 3.242667 4.074667 6.485333 6.144 9.728 2.688 4.202667 6.336 6.506667 11.52 6.165333 4.928-0.341333 9.877333-0.533333 14.826666-0.661333 4.096-0.106667 7.573333-1.856 11.029334-3.754667 2.154667-1.194667 4.416-1.898667 6.869333-1.6 4.693333 0.554667 9.365333-0.128 14.058667-0.256 2.752-0.085333 5.056-1.514667 7.317333-2.837333 1.792-1.045333 3.648-1.536 5.632-1.194667 3.157333 0.554667 6.272 0.469333 9.429333 0.021334 1.856-0.256 3.797333-0.298667 5.610667 0.192 2.645333 0.704 4.736-0.192 6.485333-2.005334 2.816-2.922667 6.186667-3.946667 10.176-3.882666 3.925333 0.064 7.850667-0.234667 11.754667-0.362667 1.898667-0.064 3.690667-0.554667 5.397333-1.450667 3.626667-1.92 7.509333-2.688 11.605334-2.624 2.048 0.021333 4.096-0.106667 6.144 0 4.608 0.277333 8.768-0.725333 12.501333-3.562666 1.813333-1.365333 3.989333-1.856 6.293333-1.770667 2.389333 0.085333 4.778667 0.106667 7.168 0.064 5.12-0.106667 10.218667-0.170667 14.805334-3.093333 2.112-1.344 4.309333-1.002667 6.570666 0.128 7.765333 3.882667 15.466667 7.914667 23.338667 11.498666 7.808 3.562667 14.826667 8.448 22.741333 11.861334 4.629333 2.005333 8.704 5.546667 13.162667 8.234666 7.296 4.394667 12.117333 11.285333 17.493333 17.642667 0.32 0.384 0.533333 0.981333 0.938667 1.194667 3.52 1.834667 3.029333 5.077333 2.965333 8.170666-0.021333 0.682667 0.106667 1.386667-0.021333 2.048-0.448 2.112 1.28 4.650667-1.728 6.314667-2.005333 1.109333-3.072 3.584-5.696 4.096-1.557333 0.298667-3.008 1.088-4.416 1.984-3.157333 2.005333-7.04 1.813333-10.026667-0.512-1.856-1.450667-3.946667-1.984-6.208-1.984-5.397333-0.021333-10.474667-0.853333-14.784-4.565333-1.770667-1.536-4.202667-1.322667-6.4-1.322667-4.053333 0-7.957333-0.149333-11.392-2.837333-1.386667-1.088-3.328-1.429333-5.141333-1.28-4.074667 0.362667-7.829333-0.576-11.178667-2.816-3.370667-2.24-7.082667-2.816-10.965333-2.773334-2.645333 0.021333-4.949333-0.704-7.168-2.24-2.517333-1.728-5.589333-2.090667-8.576-2.112-7.488 0-15.018667-0.448-22.442667 1.024-1.258667 0.256-2.624 0.341333-3.712 0.896-3.797333 1.984-7.850667 2.133333-11.968 2.133334-11.349333 0-22.698667 0.426667-34.005333 1.173333-4.693333 0.298667-9.109333 2.133333-13.674667 3.178667-2.752 0.64-5.504 1.344-8.32 1.216-10.410667-0.490667-20.8 0.469333-31.189333 0.661333-4.288 0.085333-8.533333 0.021333-12.224 2.794667-0.746667 0.554667-1.941333 0.661333-2.944 0.682666-11.072 0.298667-22.165333 0.362667-33.237333 0.128-1.024-0.021333-2.133333-0.085333-2.944-0.746666-4.202667-3.477333-9.344-3.349333-14.314667-3.818667-4.629333-0.426667-9.194667 0.448-13.738667 1.173333-0.661333 0.106667-1.408 0.277333-1.898666 0.704-3.157333 2.688-6.954667 3.072-10.837334 2.922667-3.776-0.149333-6.656 1.92-9.664 3.648-2.304 1.322667-4.608 2.026667-7.296 1.770667-2.624-0.256-5.162667 0.362667-7.253333 1.962666-2.218667 1.706667-4.714667 2.496-7.381333 2.410667-3.925333-0.128-7.168 1.365333-10.069334 3.754667-1.92 1.578667-4.032 2.154667-6.421333 2.005333-2.837333-0.170667-5.397333 0.384-7.552 2.410667-1.152 1.066667-2.730667 1.813333-4.224 1.621333-5.674667-0.789333-10.453333 1.621333-15.338667 3.84-1.962667 0.896-4.010667 1.472-6.165333 1.621333-3.306667 0.234667-6.357333 0.981333-8.938667 3.264-1.472 1.301333-3.498667 1.450667-5.354666 1.386667-3.136-0.106667-5.909333 0.746667-8.448 2.453333-3.562667 2.389333-7.722667 3.946667-10.026667 8.021334-1.173333 2.069333-3.498667 2.261333-6.165333 0.96-4.352-2.133333-8.810667-2.624-13.354667-0.810667-2.218667 0.874667-4.373333 1.941333-6.485333 3.029333-2.645333 1.365333-5.568 1.834667-8.426667 1.92-3.626667 0.128-5.546667-2.965333-7.082667-5.568-2.581333-4.394667-4.928-8.938667-7.616-13.269333-1.493333-2.410667-3.093333-4.693333-4.928-6.805333-0.512-0.576-1.173333-1.152-0.810666-2.005334 0.469333-1.045333 1.408-0.704 2.24-0.554666 5.525333 0.896 10.624-0.682667 15.509333-2.986667a20.168533 20.168533 0 0 1 11.2-1.813333c3.178667 0.405333 6.016-0.170667 8.874667-1.621334 3.925333-1.962667 8.149333-3.072 12.544-3.178666 2.922667-0.064 5.504-0.746667 7.786666-2.688 1.877333-1.621333 4.16-2.261333 6.677334-2.090667 3.669333 0.256 7.061333-0.554667 10.304-2.389333 3.370667-1.898667 6.976-3.2 10.922666-3.328 0.746667-0.021333 1.621333-0.170667 2.197334-0.597334 4.992-3.626667 11.413333-3.904 16.554666-7.168 0.426667-0.277333 0.896-0.512 1.386667-0.64 7.509333-1.813333 13.504-6.634667 20.224-10.005333 4.906667-2.453333 9.536-5.312 14.016-8.405333 9.685333-6.656 18.432-14.336 24.298667-24.789334 1.386667-2.453333 3.008-4.757333 4.544-7.104 1.002667-1.536 1.642667-3.221333 1.898666-4.992 0.32-2.154667 1.066667-4.117333 2.090667-6.016 1.493333-2.773333 2.154667-5.696 2.218667-8.832 0.192-9.130667 0.490667-18.24 0.704-27.370666 0.042667-1.536 0.021333-3.072-0.106667-4.608-0.533333-6.272-4.053333-9.536-10.346667-9.578667-9.472-0.042667-18.944-0.064-28.416-0.085333-7.424 0-14.848-0.085333-22.272 0.064-3.498667 0.064-6.378667-0.981333-8.618666-3.605334-4.373333-5.098667-9.088-9.898667-12.736-15.573333-1.258667-1.962667-0.512-3.776 1.834666-3.690667 4.224 0.149333 7.893333-1.045333 11.221334-3.541333 0.32-0.256 0.789333-0.469333 1.173333-0.469333 7.68 0.128 13.866667-4.522667 20.672-6.933334 9.344-3.285333 17.770667-8.832 25.386667-15.36 2.261333-1.941333 4.48-3.946667 6.805333-5.802666 5.909333-4.693333 10.474667-10.752 14.144-17.024 3.648-6.208 8.106667-12.693333 6.570667-20.928-0.768-4.096 0.469333-8.256 1.152-12.394667 0.96-5.824 1.642667-11.818667 0.298666-17.749333-0.448-1.941333-0.277333-3.861333-0.192-5.824 0.256-5.632-0.533333-11.242667-0.170666-16.938667 0.277333-4.330667-4.501333-7.402667-9.450667-7.402667-9.557333 0-19.114667 0.021333-28.672 0.021334-13.056 0-26.112 0.042667-39.168-0.064-3.370667-0.021333-6.101333 0.810667-8.362667 3.477333-2.944 3.456-5.845333 6.890667-6.826666 11.52-0.149333 0.725333-0.533333 1.472-0.981334 2.069333-2.965333 3.968-4.757333 8.618667-7.125333 12.928-2.56 4.672-5.44 9.386667-7.210667 14.272-2.986667 8.298667-9.429333 13.738667-14.272 20.501334-1.28 1.792-2.858667 3.392-4.330666 5.034666-1.386667 1.557333-1.258667 3.477333-1.365334 5.333334-0.213333 4.010667-1.557333 5.674667-5.397333 6.613333-5.162667 1.28-9.792 3.392-13.333333 7.573333-1.962667 2.304-4.373333 4.010667-7.338667 4.906667-2.048 0.618667-3.84 1.728-5.674667 2.88-3.968 2.517333-8.256 2.325333-12.544 0.746667-0.512-0.192-1.024-0.661333-1.322666-1.130667-4.074667-6.442667-3.178667-14.08 0.917333-20.565333 3.456-5.461333 7.786667-10.304 10.837333-16.042667 0.746667-1.408 1.749333-2.752 2.837334-3.925333 3.093333-3.392 4.330667-7.893333 7.104-11.456 4.245333-5.461333 7.744-11.370667 11.306666-17.28 1.792-2.965333 4.906667-4.992 6.314667-8.277334 3.093333-7.296 9.749333-12.010667 13.610667-18.730666 1.237333-2.133333 2.261333-4.373333 3.946666-6.229334 0.490667-0.533333 0.853333-1.344 0.938667-2.069333 0.789333-7.061333 1.322667-14.122667-2.048-20.757333-1.109333-2.197333-1.813333-4.48-1.664-6.869334 0.234667-3.52-0.234667-6.976-0.512-10.453333-0.234667-3.050667-0.576-6.101333 0.426667-9.130667 0.64-1.898667 0.213333-3.712-0.938667-5.354666-1.493333-2.090667-1.344-4.181333-0.490667-6.549334 2.432-6.656 6.058667-12.693333 9.536-18.816 1.301333-2.282667 2.901333-2.666667 5.12-1.322666 1.109333 0.682667 2.282667 1.066667 3.541334 1.408 5.461333 1.514667 10.325333 4.074667 14.677333 7.829333 4.458667 3.861333 8.682667 7.893333 12.544 12.352 0.896 1.045333 1.792 2.090667 2.304 3.349333 2.218667 5.290667 5.76 10.090667 5.76 16.213334 0 2.026667 1.045333 3.968 2.197333 5.674666 1.664 2.538667 2.197333 5.269333 2.069334 8.277334-0.298667 7.338667 2.794667 10.24 10.176 9.856 2.645333-0.128 5.290667-0.085333 7.936-0.128 1.706667-0.021333 3.413333-0.042667 5.013333-0.810667 8.298667-4.032 17.152-7.253333 22.634667-15.466667 4.608-6.912 10.112-13.333333 11.541333-21.909333 0.128-0.746667 0.341333-1.557333 0.768-2.154667 4.053333-5.504 3.456-11.968 3.669333-18.218666 0.234667-6.997333-0.426667-14.058667 0.661334-20.970667 1.109333-7.168 0.682667-14.272 0.64-21.418667-0.106667-16.64-0.021333-33.28-0.021334-49.92 0.128 0.042667 0.277333 0.042667 0.448 0.042667zM334.912 922.56c-3.818667 0.746667-7.466667-0.32-11.093333-4.16-4.714667-4.992-9.344-10.176-14.592-14.677333-1.664-1.429333-2.368-3.541333-3.456-5.354667-3.221333-5.397333-7.765333-9.92-10.453334-15.68-0.277333-0.618667-0.725333-1.258667-0.704-1.898667 0.106667-3.690667-1.664-6.528-3.946666-9.152-1.6-1.834667-2.154667-3.904-2.112-6.357333 0.042667-3.477333-0.256-6.976-0.512-10.474667-0.149333-1.984 0.192-3.84 1.664-5.184 4.928-4.48 8.768-10.005333 13.866666-14.314666 1.898667-1.6 3.776-3.2 5.909334-4.437334 6.208-3.584 8.853333-8.96 8.384-16-0.213333-3.328-0.554667-6.634667-0.746667-9.962666-0.149333-2.602667-0.746667-5.034667-1.941333-7.36-1.344-2.581333-1.322667-5.418667-1.344-8.256-0.021333-7.936-0.021333-15.872-0.170667-23.808-0.149333-8.832-1.856-17.450667-4.096-25.962667-0.469333-1.728-0.832-3.498667-0.768-5.290667 0.256-10.581333-0.277333-21.162667-0.64-31.722666-0.149333-4.032-0.725333-7.978667-2.581333-11.648-0.853333-1.685333-1.322667-3.52-1.344-5.418667-0.064-9.642667-0.234667-19.264-0.192-28.906667 0.021333-6.314667-3.242667-10.218667-9.685334-10.901333-5.034667-0.533333-9.642667 0.149333-14.037333 3.306667-3.904 2.794667-8.554667 4.501333-12.608 7.189333-2.090667 1.386667-3.733333 3.264-5.781333 4.629333-8.064 5.354667-14.656 12.416-22.037334 18.56-2.858667 2.389333-3.861333 5.973333-6.101333 8.746667-3.178667 3.904-6.613333 7.68-9.173333 11.946667-3.989333 6.613333-8.725333 12.778667-12.202667 19.733333-1.621333 3.221333-3.84 6.186667-5.610667 9.408-4.48 8.106667-8.128 16.64-12.416 24.832-0.469333 0.874667-0.789333 1.941333-0.832 2.922667-0.085333 2.176-1.024 3.946667-2.304 5.568-1.984 2.496-3.413333 5.290667-4.373333 8.32-0.277333 0.874667-0.64 1.792-1.173333 2.538666-1.642667 2.261333-2.197333 4.736-1.984 7.488 0.170667 2.282667-0.448 4.352-2.026667 6.144-2.368 2.645333-2.709333 6.208-3.861333 9.386667-0.661333 1.856-1.237333 3.712-2.197334 5.44-0.874667 1.578667-1.536 3.221333-1.6 5.077333-0.128 3.882667-2.112 7.168-3.669333 10.56-1.28 2.816-2.304 5.632-2.112 8.853334 0.149333 2.346667-0.618667 4.565333-2.069333 6.464-1.642667 2.133333-2.325333 4.544-2.176 7.189333 0.213333 3.648-0.938667 6.805333-2.88 9.877333-1.962667 3.093333-3.328 6.528-5.248 9.642667-3.456 5.589333-7.808 10.496-11.968 15.573333-6.186667 7.530667-12.928 14.464-20.48 20.629334-1.322667 1.066667-2.730667 2.048-4.224 2.88-1.024 0.576-2.453333 1.066667-3.136-0.298667-0.512-1.024-0.256-2.069333 1.002666-3.029333 2.56-1.941333 3.52-4.970667 4.266667-7.957334 0.746667-2.901333 1.408-5.802667 3.178667-8.298666 0.874667-1.216 1.152-2.666667 1.130666-4.138667-0.042667-2.368 0.853333-4.288 2.368-6.037333 2.176-2.517333 3.605333-5.333333 3.626667-8.789334 0.021333-2.688 0.832-5.205333 2.368-7.466666 0.725333-1.066667 1.472-2.218667 1.493333-3.498667 0.042667-4.373333 1.962667-8.042667 4.074667-11.690667 1.130667-1.941333 1.770667-4.032 1.792-6.314666 0.042667-2.261333 0.64-4.394667 1.941333-6.272 1.557333-2.261333 2.24-4.778667 2.176-7.488-0.085333-3.093333 0.64-5.888 2.666667-8.32 2.282667-2.730667 3.328-5.845333 3.029333-9.472-0.256-3.157333 0.597333-6.08 2.474667-8.682667 0.896-1.258667 1.621333-2.752 1.386667-4.309333-0.768-5.525333 1.664-10.154667 3.989333-14.784 1.216-2.432 1.941333-4.864 1.898667-7.594667-0.042667-2.773333 0.597333-5.418667 2.304-7.701333 1.237333-1.642667 1.834667-3.584 1.664-5.546667-0.576-6.101333 1.088-11.605333 3.946666-16.853333 1.472-2.709333 1.898667-5.610667 1.792-8.661334-0.149333-4.501333 0.576-8.789333 2.709334-12.864 1.728-3.306667 2.368-6.869333 2.069333-10.645333-0.341333-4.202667 0.832-8.170667 2.965333-11.733333a15.4496 15.4496 0 0 0 2.24-8.512c-0.064-2.730667 0.021333-5.461333 0.021334-8.192 0-1.728 0.192-3.477333 1.173333-4.906667 1.664-2.410667 2.197333-5.12 2.517333-7.957333 0.682667-5.930667 1.557333-11.818667 1.706667-17.813334 0.085333-3.093333 0.618667-6.442667 1.92-9.216 2.325333-4.864 2.090667-9.962667 2.346667-15.018666 0.234667-4.416 0.128-8.874667 0.170666-13.312 0.021333-1.557333 0.064-3.2 1.002667-4.437334 3.178667-4.16 3.285333-9.066667 3.541333-13.888 0.490667-9.365333 0.746667-18.752 1.152-28.117333 0.106667-2.752 0.704-5.44 2.048-7.872 1.194667-2.176 1.514667-4.458667 1.557334-6.890667 0.192-9.792-0.170667-19.626667 0.106666-29.397333 0.682667-25.6-0.042667-51.178667 0.426667-76.757333 0.085333-4.288-0.298667-8.32-2.453333-12.330667-1.6-2.986667-1.856-6.698667-2.688-10.090667-0.576-2.325333-1.408-4.522667-2.88-6.506666-1.066667-1.450667-1.685333-3.157333-1.685334-5.013334-0.042667-5.056-0.448-9.877333-3.136-14.506666-2.261333-3.904-1.92-8.789333-3.178666-13.12-0.213333-0.725333-0.234667-1.642667-0.682667-2.176-2.730667-3.242667-3.114667-7.082667-2.986667-11.072 0.042667-1.216-0.512-2.304-1.130666-3.349334-2.282667-3.797333-3.434667-7.957333-3.818667-12.352-0.256-2.901333-0.682667-5.696-2.922667-7.978666-1.365333-1.365333-0.789333-3.349333 1.066667-4.544 5.461333-3.498667 10.624-7.338667 15.573333-11.541334 3.946667-3.370667 9.066667-5.077333 12.970667-8.554666 4.736-4.202667 10.645333-6.634667 15.616-10.496 1.6-1.237333 3.328-2.346667 5.525333-2.453334 0.597333-0.021333 1.237333-0.554667 1.728-1.002666 4.309333-3.968 9.621333-6.293333 14.677334-9.066667 4.48-2.453333 9.194667-4.437333 13.653333-6.912 2.112-1.173333 4.202667-2.218667 6.613333-2.538667 1.642667-0.213333 3.093333-0.874667 4.373334-1.962666 0.832-0.725333 1.813333-1.322667 2.965333-1.408 3.52-0.256 6.656-1.664 9.472-3.605334 3.050667-2.112 6.4-2.666667 9.941333-2.730666 5.376-0.085333 10.709333-0.832 16.021334-1.173334 5.738667-0.362667 12.096 0.064 17.28 2.261334 5.909333 2.496 12.181333 4.245333 17.792 7.616 2.474667 1.493333 5.461333 2.325333 8.106666 3.690666 5.994667 3.093333 10.922667 7.488 15.381334 12.48 0.618667 0.704 1.216 1.429333 1.856 2.112 1.557333 1.749333 2.773333 3.605333 2.773333 6.122667 0 2.645333 1.024 4.949333 2.666667 7.04 1.984 2.581333 1.728 3.84 0 6.698667-2.816 4.672-5.098667 9.6-7.317334 14.570666-0.213333 0.469333-0.277333 1.024-0.576 1.408-3.392 4.458667-4.821333 9.92-7.722666 14.656-2.112 3.456-3.712 7.253333-6.037334 10.645334-1.045333 1.536-1.024 3.413333-1.002666 5.205333 0.042667 26.624 0.106667 53.248 0.149333 79.872 0 2.602667 0.789333 4.906667 2.304 6.912 1.642667 2.154667 2.261333 4.544 2.154667 7.189333-0.192 4.245333 0.874667 8.064 3.584 11.456 1.536 1.92 2.282667 4.138667 1.749333 6.698667-0.64 3.072 0.661333 5.738667 2.325333 8.149333 2.154667 3.157333 2.389333 6.229333 0.469334 9.578667-1.578667 2.752-0.96 5.632 0.064 8.405333 1.941333 5.248 3.434667 10.496 1.877333 16.192-0.618667 2.218667-0.298667 4.586667-0.064 6.890667 0.597333 5.952 0.234667 11.925333 0.554667 17.898667 0.192 3.605333-1.749333 7.210667-1.237334 11.072 0.448 3.392 0.298667 6.805333 0 10.218666-0.213333 2.389333-0.106667 4.778667 1.002667 6.997334 0.426667 0.853333 0.576 1.813333 0.405333 2.752-1.024 5.696-0.405333 11.413333-0.405333 17.109333 0 86.869333 0.021333 173.738667 0.042667 260.586667 0 11.264-0.085333 22.528-0.042667 33.792 0.021333 3.52-0.789333 6.741333-2.538667 9.770666a16.061867 16.061867 0 0 0-2.176 7.274667c-0.298667 5.013333-3.733333 8.448-6.570666 12.138667-1.450667 1.877333-3.733333 2.965333-4.906667 5.141333-0.384 0.725333-1.194667 0.576-1.834667 0.597333-2.474667 0.064-4.864 0.042667-8.149333 0.042667z m-26.026667-557.845333v-12.8c0-7.424 0.064-14.848 0-22.272-0.042667-5.525333-2.602667-8.789333-7.338666-9.045334-3.349333-0.192-6.336-1.173333-9.152-2.88-3.456-2.069333-7.125333-3.093333-11.2-2.922666-4.608 0.192-9.216 0.085333-13.824 0.064-4.096-0.021333-7.978667 0.768-11.477334 2.965333-3.2 2.005333-6.656 2.944-10.453333 2.730667-2.730667-0.149333-5.504 0.021333-7.872 1.664-2.858667 1.984-6.08 2.837333-9.472 2.368-4.736-0.64-8.256 1.365333-12.288 3.648-6.805333 3.84-8.832 8.938667-8.533333 16.384 0.213333 5.205333 1.792 9.045333 5.76 12.117333 3.029333 2.368 5.333333 5.248 6.186666 9.109333 0.213333 0.938667 0.597333 1.813333 1.301334 2.453334 2.090667 1.92 2.581333 4.330667 2.282666 6.997333-0.341333 3.072 0.32 5.888 1.941334 8.554667 1.984 3.285333 2.837333 6.912 2.666666 10.773333-0.490667 12.288 0.853333 24.533333 0.917334 36.821333 0.021333 7.317333 2.773333 13.205333 9.152 16.917334 4.309333 2.496 9.173333 3.861333 13.610666 6.186666 2.922667 1.536 6.144 2.474667 8.725334 4.672 1.002667 0.853333 2.197333 1.685333 3.434666 1.493334 3.989333-0.554667 7.04 1.130667 10.026667 3.413333 3.349333 2.538667 7.616 3.328 11.093333 5.696 1.898667 1.301333 4.266667 1.002667 6.144-0.085333 5.077333-2.944 10.154667-5.994667 13.461334-11.136 3.989333-6.208 4.672-13.141333 4.906666-20.330667 0.32-9.962667-1.578667-19.818667-0.789333-29.845333 1.237333-14.528 0.682667-29.141333 0.789333-43.712z m-76.416 163.712c0 4.650667 0.042667 8.490667 0 12.330666-0.064 5.312 0.128 10.581333 2.453334 15.530667 0.469333 1.024 0.618667 2.218667 0.192 3.264-2.218667 5.248-1.941333 10.858667-2.496 16.362667-0.917333 9.152-2.496 18.218667-1.92 27.498666 0.405333 6.549333 0.042667 13.141333 0.170666 19.690667 0.085333 3.989333 1.514667 7.914667 5.354667 9.173333 5.333333 1.749333 11.029333 1.749333 16.469333-0.298666 0.618667-0.234667 1.130667-0.746667 1.664-1.152 2.517333-1.898667 5.034667-3.797333 7.509334-5.738667 3.946667-3.093333 8.064-5.909333 11.541333-9.642667 3.861333-4.138667 7.829333-8.448 12.992-11.029333 5.013333-2.496 9.152-5.888 12.608-10.197333 6.485333-8.085333 10.325333-17.024 8.789333-27.669334-0.341333-2.368-0.341333-4.778667 0.042667-7.146666 0.618667-3.968 0.682667-7.978667 0.96-11.989334 0.426667-6.421333-1.493333-12.672-1.066667-19.114666 0.96-14.378667-12.906667-28.074667-26.816-28.096-3.776 0-7.488-0.618667-11.029333-1.941334-2.986667-1.109333-6.101333-1.493333-9.28-1.685333-5.674667-0.341333-11.008 2.368-16.704 1.792-0.512-0.042667-1.152 0.341333-1.621333 0.682667-2.88 2.005333-5.461333 4.394667-7.573334 7.189333-1.493333 2.005333-2.432 4.309333-2.197333 6.933333 0.426667 5.312-0.554667 10.688-0.042667 15.253334z" p-id="112743" fill="#7a2612"></path></svg>