<svg t="1646066784935" class="icon" viewBox="0 0 1024 1024" version="1.1" xmlns="http://www.w3.org/2000/svg" p-id="108498" width="16" height="16"><path d="M449.536 72.704c-14.677333 0-18.090667 5.358933-10.922667 16.008533a104.5504 104.5504 0 0 1 5.12 31.982934 91.136 91.136 0 0 0-18.090666 28.501333 198.587733 198.587733 0 0 1-19.114667 34.5088 3988.855467 3988.855467 0 0 1-104.789333 151.995733 90.794667 90.794667 0 0 0-19.114667 13.653334 23.893333 23.893333 0 0 0-7.850667 18.500266 50.176 50.176 0 0 0 31.744-13.0048 58.026667 58.026667 0 0 1 37.205334-13.0048 1031.918933 1031.918933 0 0 1 105.813333-84.002133c3.413333-17.339733 12.288-23.313067 26.282667-17.988267a49.117867 49.117867 0 0 0 41.984-3.003733 224.938667 224.938667 0 0 1 73.728-10.990933 140.970667 140.970667 0 0 0-15.701334 37.000533q-26.112 35.976533-53.248 78.984533c-9.898667-3.9936-15.018667-0.648533-15.018666 10.001067a42.2912 42.2912 0 0 1-5.802667 20.992 318.5664 318.5664 0 0 0-63.146667 16.008533 25.668267 25.668267 0 0 0 8.192 19.012267c5.12 5.3248 11.264 11.332267 17.749334 17.988267a4.983467 4.983467 0 0 0 6.144-4.983467h9.898666a422.6048 422.6048 0 0 1 121.514667-34.5088 102.4 102.4 0 0 1 47.445333 2.491733q0 111.0016-4.778666 226.986667c-7.509333 32.017067-16.384 65.365333-26.965334 100.010667a4.7104 4.7104 0 0 0-5.12 5.495466v10.513067a105.813333 105.813333 0 0 0-74.069333-5.0176 30.0032 30.0032 0 0 0 16.042667 26.0096 365.7728 365.7728 0 0 1 84.992 94.993067 9.181867 9.181867 0 0 1 9.898666 11.025066 14.199467 14.199467 0 0 0 16.042667 15.9744 39.936 39.936 0 0 0 10.581333 23.517867 90.248533 90.248533 0 0 1 15.36 29.4912c4.096 3.413333 9.557333 8.4992 16.725334 15.496533a24.064 24.064 0 0 0 26.282666 5.495467 44.612267 44.612267 0 0 0 5.12-15.9744 85.742933 85.742933 0 0 0 9.898667-37.000533 73.216 73.216 0 0 0-7.509333-32.017067 69.2224 69.2224 0 0 1-7.509334-26.0096 785.066667 785.066667 0 0 1-52.906666-58.026667 78.301867 78.301867 0 0 1-16.042667-10.990933q-5.12-5.0176 5.12-5.0176a709.0176 709.0176 0 0 0 47.786667-353.9968 167.253333 167.253333 0 0 0 16.042666-30.993067 97.28 97.28 0 0 0-47.786666-58.026666 51.370667 51.370667 0 0 0-41.984 4.983466 112.64 112.64 0 0 1-58.026667 16.008534 151.005867 151.005867 0 0 1 23.552-29.4912 182.1696 182.1696 0 0 0 23.210667-28.501334c21.504-23.893333 42.666667-48.3328 64.170666-73.0112a56.866133 56.866133 0 0 0-26.965333-43.008 105.2672 105.2672 0 0 0-63.146667-10.001066 24.3712 24.3712 0 0 1-15.36 13.0048 140.970667 140.970667 0 0 0-21.504 8.021333 56.797867 56.797867 0 0 0-18.432 2.491733 13.653333 13.653333 0 0 1-13.653333-2.491733 57.378133 57.378133 0 0 1 21.162667-32.017067 86.698667 86.698667 0 0 0-2.730667-20.48 10.615467 10.615467 0 0 0-7.509333-10.513066 23.108267 23.108267 0 0 0-16.042667-18.500267 27.101867 27.101867 0 0 1-15.701333-8.4992 174.6944 174.6944 0 0 0-68.266667-16.008533z m-94.890667 348.16c-4.096 0-5.12 0.8192-3.072 2.491733s3.754667 3.413333 5.461334 4.983467a11.605333 11.605333 0 0 1 2.730666 8.4992 555.042133 555.042133 0 0 0 4.778667 67.9936 1063.492267 1063.492267 0 0 0-16.042667 185.002667 45.704533 45.704533 0 0 1 11.264 21.026133 20.206933 20.206933 0 0 0 20.821334 10.990933 712.772267 712.772267 0 0 0 25.941333-285.013333 37.546667 37.546667 0 0 0-51.882667-15.9744z m181.589334 36.488533a38.6048 38.6048 0 0 0-34.474667 5.495467q-5.12 37.000533-10.24 78.984533a949.896533 949.896533 0 0 1-179.882667 375.022934 65.979733 65.979733 0 0 0-16.042666 10.990933c-6.485333 3.413333-6.485333 8.328533 0 15.018667a29.013333 29.013333 0 0 1 21.504-12.526934 85.947733 85.947733 0 0 0 26.624-8.4992 624.128 624.128 0 0 0 210.944-395.946666 20.48 20.48 0 0 1 3.072-23.005867 26.658133 26.658133 0 0 0 7.850666-19.012267 48.8448 48.8448 0 0 0-29.354666-26.658133z" p-id="108499"></path></svg>